<?xml version="1.0" encoding="UTF-8"?>
<!-- Generator: Adobe Illustrator 21.1.0, SVG Export Plug-In . SVG Version: 6.00 Build 0)  -->
<svg version="1.1" id="Layer_1" xmlns="http://www.w3.org/2000/svg" xmlns:xlink="http://www.w3.org/1999/xlink" x="0px" y="0px" viewBox="0 0 500 500" enable-background="new 0 0 500 500" xml:space="preserve">
<g>
	<path fill="#FFFFFF" d="M35.1,84.6h144.2v13.3v4.5l3,4.5l4.2,1l3.5-0.9l0.9-1.3l0.2-1.6l0.6-1l0.9,0.4l0.6,1.9l0.2,1.9l-0.9,1.3   l-2.4,0.7h-2.8h-1.9l-1.2,0.7v0.9l2.2-0.3l5.4,1.1l6.7,2.9l5.9,1.3l2.7-0.5l1.2-1.4l0.8-2.8l-0.4-2.8l0.7-2.8l5.2-21.1l68.4,0.4   l18.2,88.6l3.4,3.4l10.5,5.5l12.2,4.4l5.7,1l1.7-0.6l1.7-2.7l0.4-3.6l-1.9-3.3l-3.5-7.3l-1-4.5l-0.1-3.5l1.5-1.8l1.6-1.8l2.9-1.6   l-0.1-0.7l-2.1-4.1l-3.4-2l-4.6-1.2l-3.4-0.2l-3.9-0.1l-0.1-64.2l145.5,0.2v65.5l-2.7,0.8l-6.7,2.5l-4.3,4.5l-2.5,6l-1.1,6.3   l-35.8,171.5l5.9,3.1l11.4,6.4l-24.7,55l-2.6-0.9l-4.5,9.5l-122.8,0.3l-11.3-45l-28.1,0.4L222.2,415l-122.5,0l-4.2-9.3l-2.6,2.2   l-27.1-54.5l18.8-9.7L46.3,160.5c0,0-2-4.2-2.2-4.2s-4.3-2.7-4.3-2.7l-3.3-0.4l-1.5-0.2V84.6z"/>
	<g>
		<path fill-rule="evenodd" clip-rule="evenodd" fill="#522D80" d="M318.1,83.9l0.1,65.4l0.7,0c6.8,0.1,14.1,1.1,16.9,6.9    c-3.1,1.8-5,3.8-5.8,6.3c-1.3,4.2,1.1,8.8,3.3,12.8c1.8,3.4,3.6,6.7,2.8,9.1c-0.4,1.1-1.3,2.1-2.8,2.9c0,0,0,0-0.1,0    c-4.4,0-28.3-7.9-31.5-14.5l-18-88.1l-0.1-0.6L214.2,84l-5.7,23.7l0,0.1c0.2,3.3-0.2,5.6-1.3,6.7c-0.6,0.6-1.4,0.9-2.6,0.9    c-2.2,0-5.2-1.2-8.4-2.5c-3.8-1.5-7.9-3.1-11.2-2.8c0.5-0.2,1.1-0.3,1.9-0.3c0.4,0,0.8,0,1.2,0c0.4,0,0.8,0,1.3,0    c1.5,0,3.2-0.2,4.3-1.8l0.1-0.2l0-0.2c0-1.7-0.1-4.3-2.1-5.3l-0.4-0.2l-0.3,0.3c-0.6,0.5-0.7,1.3-0.7,2.1c0,1.3,0,2.3-2,2.6    c-0.6,0.1-1.1,0.1-1.7,0.1c-6.2,0-6.9-6.3-6.9-6.3l0.1-16.6L34.4,84l-0.2,69.6l0.7,0c9,0.1,10.6,5.1,11.8,11.6l37.1,178l-19,9.9    l28,55.8l2.5-2l4.1,8.8l123.5,0l11.7-44.4c5.7-0.2,10.8-0.4,15.7-0.4c4,0,7.8,0.1,11.5,0.2l11.5,44.6l123.8-0.3l4.2-9.4l2.5,1.1    l25.5-56.1l-17.6-9.3L449,163.6c2.1-7.6,7.1-11.7,15.2-12.6l0.6-0.1l0.2-66.8L318.1,83.9z M188.6,108.4c3.1-0.5,3.2-2.6,3.2-3.9    c0-0.1,0-0.3,0-0.5c0.7,0.8,0.7,2.2,0.7,3.4c-0.6,0.7-1.5,1-3.1,1c-0.3,0-0.7,0-1,0C188.5,108.4,188.6,108.4,188.6,108.4z     M463.4,149.7c-8.3,1.1-13.5,5.5-15.8,13.6L410.4,342l-0.1,0.5l17.4,9.2l-24.4,53.7l-2.5-1.1l-4.4,9.8l-121.8,0.3l-11.5-44.6    l-0.5,0c-3.8-0.2-7.9-0.3-12.1-0.3c-5.1,0-10.4,0.1-16.3,0.4l-0.5,0l-11.7,44.3l-121.6,0l-4.5-9.6l-2.5,2l-26.6-53.1l18.7-9.7    L48.1,165c-1.2-6.7-3-12.3-12.5-12.7l0.2-66.9l142.7,0.2l-0.1,15.3c0,1.2,1.3,7,7.1,7.6c-1.2,0.2-2.2,0.8-2.8,2.4l-0.4,1.3    l1.3-0.5c0.6-0.2,1.4-0.3,2.2-0.3c2.9,0,6.4,1.4,9.8,2.8c3.3,1.3,6.4,2.6,8.9,2.6c1.5,0,2.7-0.5,3.6-1.4c1.3-1.4,1.9-3.9,1.7-7.6    l5.4-22.4l67.2,0.2l17.9,87.6l0,0.1c3.3,7.3,28.5,15.4,32.8,15.4c0.1,0,0.2,0,0.3,0l0.2-0.1c2-1,3.1-2.2,3.6-3.7    c1-3-0.9-6.5-2.9-10.2c-2.1-4-4.3-8.1-3.2-11.7c0.7-2.2,2.5-4.1,5.7-5.7l0.6-0.3l-0.2-0.6c-2.8-6.8-10.4-8.1-17.7-8.3l-0.1-62.7    l144.1,0.2L463.4,149.7z"/>
		<path fill-rule="evenodd" clip-rule="evenodd" fill="#522D80" d="M230.4,165.6c19.8,7.6,46.7,7.8,67.6,5.6l-17.2-83.6h-63.3    l-5.2,20.4c2,3.6,2.1,6.9,0.2,10.6c2.5-0.9,7.6,1.9,7.5-2.9c1.7-0.9,2.6,1.1,3.6,1.9c-0.9,11.9-17.9,4.5-24.2,6.5    c15.4,1.2,28.6,4.1,35.8,18.1c4.5,4.1,8.9-6.4,14.2-6.8c-1,5.4,5.4,4.4,3.2,9c-2.4,5.1-7.2,9-12.4,9.7c6.2,2.2,11.5-1.9,15.9-5.4    c5.6,6.1-4.1,7.5-4.9,12.4c-6.6,3.7-15.6,5-23,0c-15.3-16.5-38.3-39.7-52.7-44.3C196.6,127.7,227.1,164.5,230.4,165.6z"/>
		<path fill-rule="evenodd" clip-rule="evenodd" fill="#522D80" d="M221.9,133.6c-1.8-3.1-11.1-4.9-17.1-3.7    c4.7,0.6,17.9,1.8,17.5,9.9l-7.1,0.6c1.7,0.8,10-1.2,9.6,5l-5,2c10.8-1.2,12.2,15.2,23.1,12C231.5,158.4,227.8,142.7,221.9,133.6z    "/>
		<path fill-rule="evenodd" clip-rule="evenodd" fill="#522D80" d="M232.2,160.2l-6.1-4C227.3,158.4,230.9,161.4,232.2,160.2z"/>
		<path fill-rule="evenodd" clip-rule="evenodd" fill="#522D80" d="M235.2,147.4c2.9,3.2,7,1.5,9.8-0.5    C241.6,146.9,238.3,149.3,235.2,147.4z"/>
		<path fill-rule="evenodd" clip-rule="evenodd" fill="#522D80" d="M339,185c-3.9,5.7,5.1,5.8,6.2,6.4L339,185z"/>
		<path fill-rule="evenodd" clip-rule="evenodd" fill="#522D80" d="M153.8,124.2c-1.1,0.8-5.6,0.9-2.8,4.2c2.8-0.6,4.5-2,5.6-3.7    C156,123.6,154.6,124.5,153.8,124.2z"/>
		<path fill-rule="evenodd" clip-rule="evenodd" fill="#522D80" d="M98.4,404.5l3.4,7.4l117.5,0l10.1-41.3    c-75.2,4.7-114.6,25.9-128.8,32.9C99.2,404.2,98.6,404.4,98.4,404.5z"/>
		<path fill-rule="evenodd" clip-rule="evenodd" fill="#522D80" d="M98.4,404.5L98.4,404.5C98.3,404.4,98.1,404.6,98.4,404.5z"/>
		<path fill-rule="evenodd" clip-rule="evenodd" fill="#522D80" d="M276.9,412l117.2,0l4.1-8.7c-38-20.2-85.2-30.7-132-32.8    L276.9,412z"/>
		<path fill-rule="evenodd" clip-rule="evenodd" fill="#FFFFFF" d="M425.4,411.2c-0.1-0.2-0.1-0.5-0.1-0.8l-0.1-1.8    c0-0.7-0.2-1.1-0.3-1.4c-0.2-0.3-0.5-0.5-0.9-0.6c0.5-0.2,0.9-0.5,1.1-1c0.2-0.4,0.4-0.9,0.4-1.5c0-0.6-0.1-1.1-0.4-1.5    c-0.2-0.4-0.6-0.8-1-1c-0.2-0.1-0.5-0.2-0.8-0.3c-0.3-0.1-0.8-0.1-1.5-0.1h-4.1v10.6h1.4v-4.5h2.3c1,0,1.7,0.1,1.9,0.3    c0.3,0.2,0.4,0.7,0.5,1.4l0.1,1.4c0,0,0,0,0,0c0.1,0.7,0.1,1.2,0.3,1.4h1.7v-0.3C425.6,411.5,425.5,411.4,425.4,411.2z     M423.3,405.7c-0.4,0.3-1,0.4-1.9,0.4H419v-3.6h2.5c0.9,0,1.6,0.1,1.9,0.4c0.3,0.3,0.5,0.7,0.5,1.3    C423.9,404.9,423.7,405.4,423.3,405.7z"/>
		<path fill-rule="evenodd" clip-rule="evenodd" fill="#FFFFFF" d="M421.2,397.6c-5,0-9.1,4.1-9.1,9.1c0,5,4.1,9.1,9.1,9.1    c5,0,9.1-4.1,9.1-9.1C430.3,401.7,426.2,397.6,421.2,397.6z M421.2,414.4c-4.3,0-7.7-3.5-7.7-7.7c0-4.3,3.5-7.7,7.7-7.7    c4.3,0,7.7,3.5,7.7,7.7C428.9,411,425.4,414.4,421.2,414.4z"/>
		<path fill-rule="evenodd" clip-rule="evenodd" fill="#522D80" d="M340.2,154.6c6.8,0.9,16.8-2.2,21.8-0.3    c-4.9,4.2-20.9-0.2-26.2,8.7c-2.7,6.3,12.3,21.4,20.7,31.9c0.8,1.9,1.4,4-1.5,5.1c-10.3-1.8-20-10.1-32-11.1l31,12.8    c3.1,0.2,5.5-3.2,4.7-6.3l-18.5-23.8c-2.8-4.5-3.7-8.4,3.2-10.7l31-1.6c4.5-0.3,4.7-6.8,5.2-7.1c1.5,5.1,1.2,5.3,1,7.8    c-6,13-23.4,5-34.9,7.5c-3.7,6,3.2,9.7,7.2,13.9c13.9-3.3,28,1,39.3,7.9c3.7,3.8,11.7-0.2,13.1,6.2c-1.9,2-3.6,1.8-5.8,1.5    c-12.4-5.7-26.2-13.9-40.5-10.6c20.1-3,32.4,15.5,52,12.5c5.6,4.3-5.3,4.1-3,7.8c0.2,1.2-0.5,1.2-0.8,1.9    c-15.1-0.8-25.1-15.3-41.8-12.5c19-0.8,31.2,16.1,50,15.8c6,8.3-6.7,1.5-8,6.5c-12.6-5.4-23.9-15.9-38.2-13.8    c15.9,0.4,27.5,10.8,41,17.1l0,4.1c-14.5-1.7-24.5-15-39.6-14.6c8.9,2.4,19,5.7,26.6,12.8c4.4,4.8,7.2,10.2,6,17.5    c-1.2,3.5-2.7,7.4-4.9,8.3c0.4-5.6,2.6-13.2-0.9-18.7c-5.7-10-17.8-14.3-27.5-14.2c-16.3,11.4-30.6-15.2-42.7-17.8    c14,7.3,24.4,26.1,41.9,22.8c-17.7,13.5-26.7-14.7-41.8-17c1.6,22.3-16.1,36.8-31.8,51.1c-0.8,0.8-1.7,1.5-2.5,2.3    c-1,4.5-0.4,9.8,0.8,13.8l-5.6,11.2c-1,2.6-4.4,3.5-8.3,1.8c-9.4,6.3-17.3,22.3-28.2,20.6l3.1,1.9c-0.8,1.6-1.9,2.1-1.6,3.5    c49.3-0.2,111.9,10.3,153.8,29.9l37.8-176.3c1.9-10,6.3-14.3,16.6-16.9V87.7l-139.5-0.1l-0.1,58.6    C333.3,145.4,340.2,154.6,340.2,154.6z M297.9,277.6c-0.8,0.5-4,1.5-7.3,2.1l3.7-7.5l-0.1-0.1c-2.3-7.5-0.9-13.5-0.9-13.5l2.3-2.1    C297,259.6,300.6,275.7,297.9,277.6z"/>
		<path fill-rule="evenodd" clip-rule="evenodd" fill="#522D80" d="M231.6,311.4c4.4-10.2,13.9-10.9,19.4-19.6c1.4-0.3,4.1-2,4.1-2    l7.9-7.3l0.2-0.2l9-8.3l2.3-5.5l-0.3,0.1c0,0-0.1,0-0.1,0l-0.1,0l-2.1,5.1l-8.8,8.2c-3.4-0.4-9-0.5-10.4-0.5    c-1.8,0-6.4,0.8-5.9,3.3c0.5,2.6,3.8,5.9,3.8,5.9l-18.2,12.8c-0.8-2-0.5-13.6-0.5-15.1c0-1.5,5.4-12,9.5-14.3    c3.9-2.2,30.5-5.1,32.6-5.4l0.4-0.1l-7.1-9.9c-1.1-16-1.3-44.9,1.8-48c0.4-0.2-1.6-0.5-1.6-0.5c-2.2,4.5-2.1,13.8-2.7,20.2    c-13.5,3.3-26.6,11.5-41.8,7.9c-17.7-8.5-14.3,15.5-21.2,22.2c6.4,1.8,14.6-0.2,21.4-0.6l0.5,2.8l1.4,0.3l-1.1-3.4    c3.5-2.8,6.3-3.9,9.4-1.7l14.4,9.8c-8.8,5.8-19,4.8-29.8,5.8l-1.4-1.2c-9-1.8-21,0.3-27.3-6.6l10.3-0.4L186.9,251    c2.7-5.1,2.9-12.3,8.4-15.5c2.8-1.7,9.8-1.3,11-1.3c0.5,0,1.9-2.3,1.9-3.2l-1.1-0.2l-1.5,2.3c-13.9-1-25.3,6.2-37.9,5.8v1.9    c0.6,6.2,4.6,9.5,8.1,13.9c-2.3-5.5,6.7-4.5,9.7-3.7l11.6,13.3l-29.9-0.4c-2.8,0.6-6.5-7.7-8.3-13.3c-0.6-6-8.2-10.8-7.2-17.3    c-0.4-10,6-12.3,13.5-13.2c6.5-1,13.7-1.9,17.6-3.9l0.8-2.8l-1.5-0.6c0,0.7-0.5,2.6-0.5,2.6c-1.4,0.6-5.6,1.8-7.8,2.4    c-7.6-8.3-10.1-20.5-6.9-31.2c-3.5-11.1-1.4-24.9-5-35.7l1.2-2.6c-9.8,4.6-21,0.6-29.8,7.7c-4.2,3.7-9.2,1.3-14,0.2    c-0.9-1.1-2.8-1.9-2.8-3.3l8.8-4.9c-4.1-3.6-10,5.1-13.1,0.2c0.7-2.8-2.1-8.1,1.8-10.7c10-3.7,19.7-9.4,28.5-16.6    c10.3-8,24.3-6.5,30.3-19.6c3.6,1.3,1.4,4.1,3.7,6V87.6H38.2v61.7c7.2,0.8,10.3,4.5,12,13l37.8,179.6    C131.8,321.2,179.7,314.1,231.6,311.4z"/>
		<polygon fill-rule="evenodd" clip-rule="evenodd" fill="#522D80" points="271.2,331 271.1,331 268.5,343.3 272.6,343.5   "/>
		<path fill-rule="evenodd" clip-rule="evenodd" fill="#522D80" d="M70.2,354.7l23.7,48c43.5-24.3,99.3-35.4,154.8-36.6    c52.5-0.7,107.8,10.9,153.4,35.1l22-47.9C326.6,302,167.1,301.9,70.2,354.7z M127.7,382.1l-2.4-7c1.1-1.4,0.4-2.8-0.1-4.3    l-3.7-10.6l-0.1,0l2.4,23.2l-3.7,1.3l-12.8-19.6l-0.1,0l3.7,10.6c0.5,1.5,0.9,3,2.6,3.4l2.4,7l-11.6,4l-2.4-7    c1.1-1.4,0.4-2.8-0.1-4.3l-6.2-17.7c-0.5-1.5-0.9-3-2.6-3.4l-2.4-7l14.8-5.1l9.5,14.8l0.1,0l-1.7-17.5l14.4-5l2.4,7    c-1.1,1.4-0.4,2.8,0.1,4.3l6.2,17.7c0.5,1.5,0.9,3,2.6,3.4l2.4,7L127.7,382.1z M172.1,367.6c-2.2,3.3-6,4.6-9.5,5.5    c-3.5,0.8-7.5,1.3-11-0.6c-4-2.3-5.1-5.6-6.2-9.9l-3.9-16.5c-0.4-1.5-0.6-3.1-2.3-3.7l-1.7-7.2l14.7-3.5l1.7,7.2    c-1.2,1.3-0.7,2.8-0.4,4.3l4.4,18.6c0.2,0.8,0.9,2.8,3.1,2.3c2.2-0.5,1.9-2.7,1.7-3.5l-4.4-18.6c-0.4-1.5-0.6-3.1-2.4-3.6    l-1.7-7.2l14-3.3l1.7,7.2c-1.4,1.3-0.9,2.8-0.6,4.3l3.9,16.5C174.2,360.3,174.7,363.8,172.1,367.6z M197.9,366.4    c-5,0.7-10.4,0.5-14.9-2.3l-1.6-11.1l12-1.7c0.4,2.5,0.6,4.3,1.1,5.1c0.5,0.8,1.5,1.2,2.4,1c1.6-0.2,2.1-2,1.9-3.5    c-0.6-4.2-3.2-4.2-6.7-4.6c-7.7-0.9-12.2-2.1-13.5-11.1l-0.1-0.9c-0.5-4.5-0.1-6.8,2.8-9.8c2.3-2.5,6.1-3.5,9.7-4    c5.3-0.8,10.2-0.3,15.1,2.3l1.4,9.8l-11.4,1.6l-0.1-0.8c-0.3-1.8-0.7-4.4-3.1-4.1c-1.6,0.2-2.2,1.6-2,3.1c0.1,0.8,0.3,1.6,1.1,2.2    c0.8,0.7,2.6,1,3.7,1.1c3,0.4,7.2,0.9,9.9,2.3c1.6,0.8,2.8,1.9,3.6,3.5c0.9,1.7,1.5,3.6,1.7,5.6l0,0.2    C212.1,358.3,209.6,364.7,197.9,366.4z M380.2,375.2c1.6,0.6,2.8-0.8,3.3-2.2c1.4-4.1-0.9-5.2-3.9-7.2c-6.5-4.3-9.8-7.5-6.9-16    l0.3-0.9c1.7-4.2,3-6.1,7-7.5c3.2-1.1,7-0.3,10.5,0.9c5.1,1.8,9.2,4.4,12.4,9l-3.2,9.3l-10.9-3.8l0.2-0.7c0.6-1.8,1.4-4.2-0.9-5    c-1.5-0.5-2.7,0.4-3.2,1.8c-0.3,0.8-0.5,1.6-0.1,2.5c0.4,1,1.9,2.1,2.7,2.7c2.5,1.8,5.9,4.1,7.7,6.6c1,1.4,1.6,2.9,1.6,4.8    c0,1.9-0.4,3.9-1,5.7l-0.1,0.2c-2.6,7.6-7.8,12.1-19,8.2c-4.8-1.7-9.5-4.4-12.2-8.9l3.7-10.6l11.4,4c-0.8,2.4-1.5,4.1-1.4,5.1    C378.7,374.1,379.3,374.9,380.2,375.2z M332.6,356.4l3.7-15.5c0.9-3.6,2.1-7,5.5-8.8c3.4-1.8,7.4-1.6,11-0.7    c5.3,1.3,10.4,3.9,13.8,8.3l-2.5,10.3l-11.6-2.8l0.2-0.9c0.4-1.8,1.6-5.2-1-5.8c-2.3-0.5-3,1.7-3.4,3.4l-4.4,18.1    c-0.1,0.4-0.5,2.7,1.8,3.2c2.7,0.6,3.1-2.9,3.6-4.8l0.4-1.8l-2.1-0.5l1.9-7.9l13.7,3.3l-4.7,19.4c-4.7,2.7-10.6,2.1-15.5,0.9    c-3.5-0.8-7.4-2.1-9.5-5.2C330.8,364.6,331.5,360.8,332.6,356.4z M293,356.5c1.6-0.8,1.7-2.3,1.9-3.9l2.7-18.6    c0.2-1.5,0.6-3.1-0.7-4.3l1.1-7.3l13.3,1.9l4.1,19.7l0.1,0l1.1-7.3c0.2-1.6,0.6-3.1-0.8-4.3l1.1-7.3l12.6,1.8l-1.1,7.3    c-1.6,0.8-1.7,2.3-1.9,3.9l-4.3,30l-11.9-1.7l-4.6-19.6l-0.1,0l-1.1,7.2c-0.2,1.5-0.6,3.1,0.7,4.2l-1.1,7.3l-12.2-1.8L293,356.5z     M254.9,354.3c1.4-0.9,1.6-3,2.1-4.6l6.8-29.4l17.6,0.9l4.2,30.6c0.2,1.3,0.5,3.7,1.9,4.2l-0.4,7.4l-15.6-0.8l0.4-7.4    c1-0.3,1.5-1.1,1.5-2.2c0-0.4-0.1-0.8-0.1-1.2l-6-0.3c-0.1,0.4-0.2,0.8-0.2,1.2c-0.1,1.2,0.4,2,1.5,2.4l-0.4,7.4l-13.7-0.7    L254.9,354.3z M250.3,338.5l-8.7,0.4l-0.3-7c-0.1-1.9-0.5-2.9-2.3-2.9l0.9,21.4c0.1,1.6,0,3.1,1.5,4l0.3,7.4l-15,0.6l-0.3-7.4    c1.4-1,1.2-2.6,1.2-4.1l-0.9-21.4c-1.8,0.1-2.1,1.2-2.1,3.1l0.3,7l-8.7,0.4l-0.8-18.9l34.2-1.4L250.3,338.5z"/>
	</g>
</g>
</svg>